#!OML:ASF F:\VICON\USERDATA\INSTALL\rory3\rory3.ASF
:FULLY-SPECIFIED
:DEGREES
408
root 1.01224 17.9462 42.8593 -4.16334 -3.41051 -1.01565
lowerback 11.9689 0.757183 0.0684488
upperback 0.0636343 1.10113 1.25193
thorax -6.68021 0.557096 1.08789
lowerneck -16.5933 -3.32326 -2.78402
upperneck 22.552 -4.47725 2.25431
head 10.0366 -2.0469 0.652709
rclavicle -1.24613e-014 -1.5704e-014
rhumerus -28.8543 -17.4316 -80.2756
rradius 34.1625
rwrist 1.8477
rhand -17.5614 23.9852
rfingers 7.12502
rthumb 8.69358 -5.81582
lclavicle -1.24613e-014 -1.5704e-014
lhumerus -35.2224 6.25022 80.0477
lradius 22.3941
lwrist 7.99902
lhand -31.5551 13.6909
lfingers 7.12502
lthumb -4.81919 43.6161
rfemur -20.5748 -0.789922 23.5255
rtibia 76.9172
rfoot 2.67384 -9.8501
rtoes 13.1612
lfemur -8.55909 -2.64911 -23.5885
ltibia 26.2866
lfoot -10.7639 -2.68238
ltoes 4.08088
409
root 1.02005 17.954 43.0313 -4.23386 -3.21058 -0.672804
lowerback 12.0598 0.702933 -0.191633
upperback -0.0473478 0.98815 1.15837
thorax -6.84992 0.509552 1.15489
lowerneck -16.2236 -3.42457 -2.94463
upperneck 22.4157 -4.64265 2.49259
head 9.93342 -2.1142 0.746395
rclavicle 1.11878e-014 9.74045e-015
rhumerus -29.4971 -17.5193 -80.062
rradius 34.2364
rwrist 1.31362
rhand -17.4638 23.7203
rfingers 7.12502
rthumb 8.78783 -6.07679
lclavicle 1.11878e-014 9.74045e-015
lhumerus -35.0358 5.60751 80.1524
lradius 22.8551
lwrist 8.11552
lhand -31.0506 14.5551
lfingers 7.12502
lthumb -4.33196 44.4908
rfemur -21.6419 -1.06286 23.1278
rtibia 76.6969
rfoot 1.86411 -9.79806
rtoes 13.6706
lfemur -7.78386 -2.60996 -24.0854
ltibia 26.1829
lfoot -11.3854 -2.63351
ltoes 4.74166
410
root 1.03877 17.962 43.2313 -4.40711 -2.55896 -0.197595
lowerback 11.6148 0.460819 -0.464457
upperback 0.175042 0.617856 1.04196
thorax -6.35577 0.333081 1.25362
lowerneck -16.373 -3.60577 -3.28471
upperneck 22.431 -4.89085 2.84546
head 9.99417 -2.21495 0.889946
rclavicle -8.32411e-015 -2.98177e-014
rhumerus -29.7898 -17.7425 -79.8978
rradius 34.4486
rwrist 1.10209
rhand -17.2627 23.8952
rfingers 7.12502
rthumb 8.98182 -5.89364
lclavicle -8.32411e-015 -2.98177e-014
lhumerus -34.4044 5.68181 80.0222
lradius 23.1688
lwrist 7.0339
lhand -29.8021 15.9832
lfingers 7.12502
lthumb -3.1263 45.94
rfemur -22.1529 -1.89025 22.3529
rtibia 76.1937
rfoot 0.318799 -9.49497
rtoes 13.8614
lfemur -6.65582 -2.70374 -24.8328
ltibia 25.9315
lfoot -12.0738 -2.86416
ltoes 5.46315
411
root 1.03437 17.9324 43.3412 -4.34895 -2.26725 -0.2181
lowerback 12.088 0.344206 -0.577252
upperback 0.281505 0.451471 1.11631
thorax -6.50632 0.256369 1.42324
lowerneck -16.5251 -3.31884 -3.02933
upperneck 22.2282 -4.50359 2.68146
head 9.92616 -2.03265 0.841385
rclavicle 6.65307e-015 -3.97569e-016
rhumerus -29.5418 -17.9889 -79.8909
rradius 34.4229
rwrist 1.08758
rhand -17.2237 24.0452
rfingers 7.12502
rthumb 9.01945 -5.742
lclavicle 6.65307e-015 -3.97569e-016
lhumerus -33.3461 5.55772 79.9486
lradius 23.8196
lwrist 5.47762
lhand -27.1699 21.2644
lfingers 7.12502
lthumb -0.584219 51.2433
rfemur -23.6618 -2.07435 22.5571
rtibia 75.7556
rfoot -0.627345 -9.67453
rtoes 13.0858
lfemur -6.37648 -2.73776 -24.8131
ltibia 25.8558
lfoot -12.2126 -2.95467
ltoes 5.27551
412
root 1.03705 17.9212 43.5156 -4.50683 -2.01149 -0.126774
lowerback 12.2531 0.174834 -0.829868
upperback 0.458344 0.196915 1.22526
thorax -6.40528 0.139556 1.7254
lowerneck -17.6846 -3.71466 -3.54732
upperneck 23.1195 -4.96297 2.88774
head 10.5031 -2.24516 0.915649
rclavicle -7.47927e-015 -1.03368e-014
rhumerus -29.5313 -17.7948 -79.8708
rradius 34.5113
rwrist 0.809336
rhand -17.2911 24.3321
rfingers 7.12502
rthumb 8.95448 -5.45788
lclavicle -7.47927e-015 -1.03368e-014
lhumerus -32.7128 5.27289 80.0969
lradius 23.9997
lwrist 6.4112
lhand -27.5452 18.9982
lfingers 7.12502
lthumb -0.946675 48.9758
rfemur -24.356 -2.25021 22.4825
rtibia 74.9688
rfoot -1.89661 -9.67603
rtoes 11.9994
lfemur -5.69898 -2.83719 -25.0205
ltibia 26.1509
lfoot -12.8341 -2.77593
ltoes 5.2018
413
root 1.03338 17.9113 43.6678 -4.4908 -1.92091 -0.396727
lowerback 12.4495 0.0832581 -0.722782
upperback -0.0479818 0.106188 1.40031
thorax -7.05166 0.102785 1.87026
lowerneck -15.6992 -3.44127 -3.46215
upperneck 22.3897 -4.64434 2.88918
head 9.84942 -2.12002 0.978678
rclavicle -2.23012e-015 -7.15625e-015
rhumerus -31.247 -17.4004 -79.4166
rradius 35.1787
rwrist 0.464753
rhand -17.1542 23.9217
rfingers 7.12502
rthumb 9.08653 -5.86257
lclavicle -2.23012e-015 -7.15625e-015
lhumerus -33.4372 4.87485 80.04
lradius 24.608
lwrist 6.43116
lhand -27.2433 18.4438
lfingers 7.12502
lthumb -0.655093 48.4225
rfemur -25.3902 -2.20342 22.9325
rtibia 74.0711
rfoot -2.93981 -9.70866
rtoes 10.8645
lfemur -5.21739 -2.74054 -24.7302
ltibia 26.2168
lfoot -13.357 -2.77388
ltoes 4.95951
414
root 1.02805 17.8848 43.79 -4.3606 -1.86344 -1.03393
lowerback 12.7479 0.0147779 -0.228662
upperback 0.120015 0.106135 1.67111
thorax -7.04051 0.0895016 1.87819
lowerneck -16.1129 -3.05043 -2.71364
upperneck 22.3291 -4.05872 2.01017
head 9.84718 -1.88227 0.620244
rclavicle 6.88292e-015 -1.98785e-014
rhumerus -30.9506 -17.3265 -79.423
rradius 35.3662
rwrist 0.153756
rhand -17.0916 23.2914
rfingers 7.12502
rthumb 9.14698 -6.49028
lclavicle 6.88292e-015 -1.98785e-014
lhumerus -32.3464 4.42558 80.2762
lradius 25.0656
lwrist 6.79417
lhand -27.4855 17.9305
lfingers 7.12502
lthumb -0.888976 47.9084
rfemur -26.618 -2.16309 23.8342
rtibia 72.984
rfoot -3.85278 -9.796
rtoes 9.81513
lfemur -5.09345 -2.61162 -24.0025
ltibia 26.4451
lfoot -13.8241 -2.81224
ltoes 4.59664
415
root 1.04799 17.8747 44.024 -4.99137 -1.14259 0.752684
lowerback 11.83 -0.1207 -1.74963
upperback 0.937267 -0.323641 1.14552
thorax -5.63816 -0.103334 2.24401
lowerneck -16.6459 -3.35055 -3.15293
upperneck 22.0859 -4.48985 2.61653
head 9.89926 -2.04385 0.839562
rclavicle -1.48467e-014 -1.31198e-014
rhumerus -30.3266 -17.4618 -79.5559
rradius 35.1995
rwrist -0.108676
rhand -17.2116 23.1751
rfingers 7.12502
rthumb 9.03117 -6.61152
lclavicle -1.48467e-014 -1.31198e-014
lhumerus -31.1019 3.74803 80.493
lradius 25.3668
lwrist 7.71718
lhand -27.8075 17.712
lfingers 7.12502
lthumb -1.20003 47.6883
rfemur -26.2609 -3.16738 21.4397
rtibia 71.7543
rfoot -5.68032 -9.05793
rtoes 9.02014
lfemur -3.35086 -2.60259 -26.2503
ltibia 26.2942
lfoot -14.7633 -2.82727
ltoes 5.13315
416
root 1.03044 17.8626 44.1418 -4.6091 -1.16495 0.0539989
lowerback 12.7197 -0.174609 -1.4049
upperback 0.292443 -0.333906 1.47642
thorax -6.82 -0.0924532 2.41752
lowerneck -16.0332 -3.14728 -3.00785
upperneck 22.1075 -4.23662 2.50765
head 9.77731 -1.93401 0.820438
rclavicle 4.48508e-015 1.19271e-014
rhumerus -31.2924 -17.4702 -79.1962
rradius 35.2628
rwrist -0.0658078
rhand -17.3709 23.4595
rfingers 7.12502
rthumb 8.87745 -6.3338
lclavicle 4.48508e-015 1.19271e-014
lhumerus -31.4147 3.32974 80.454
lradius 25.9883
lwrist 7.61742
lhand -27.0708 19.5787
lfingers 7.12502
lthumb -0.488452 49.5578
rfemur -27.7356 -2.72283 22.5395
rtibia 70.2171
rfoot -6.22038 -9.45016
rtoes 7.62267
lfemur -3.42991 -2.54874 -25.3739
ltibia 26.23
lfoot -14.9877 -2.88962
ltoes 4.78449
417
root 1.035 17.8516 44.3136 -4.58257 -0.696587 0.752735
lowerback 12.8385 -0.267872 -2.0681
upperback 0.117246 -0.568329 1.3158
thorax -7.05727 -0.182203 2.67039
lowerneck -16.5549 -3.50693 -3.24646
upperneck 23.0846 -4.68173 2.46002
head 10.2448 -2.15518 0.772244
rclavicle -1.60022e-014 -8.74653e-015
rhumerus -31.8303 -17.5257 -78.8957
rradius 35.1185
rwrist 0.0280505
rhand -17.6413 23.7984
rfingers 7.12502
rthumb 8.6165 -6.00578
lclavicle -1.60022e-014 -8.74653e-015
lhumerus -31.2259 2.9184 80.451
lradius 26.6286
lwrist 7.38073
lhand -26.3883 21.6134
lfingers 7.12502
lthumb 0.17067 51.593
rfemur -28.3263 -3.18949 21.6963
rtibia 68.597
rfoot -7.15211 -9.21952
rtoes 6.17407
lfemur -2.65194 -2.51324 -26.2209
ltibia 25.9268
lfoot -15.4148 -3.03672
ltoes 4.20007
418
root 1.03384 17.8334 44.4688 -4.46851 -0.459372 1.09894
lowerback 12.7392 -0.338268 -2.44458
upperback 0.131011 -0.719876 1.25921
thorax -6.97382 -0.245858 2.84986
lowerneck -16.364 -3.629 -3.47721
upperneck 22.8997 -4.83433 2.63089
head 10.1581 -2.22858 0.853155
rclavicle -5.18083e-015 -4.77083e-015
rhumerus -31.9056 -17.4975 -78.7752
rradius 34.9003
rwrist -0.141559
rhand -17.4856 23.8232
rfingers 7.12502
rthumb 8.76677 -5.97477
lclavicle -5.18083e-015 -4.77083e-015
lhumerus -30.6543 2.30438 80.55
lradius 27.0975
lwrist 8.53165
lhand -26.8985 21.0156
lfingers 7.12502
lthumb -0.322014 50.9951
rfemur -29.0519 -3.35378 21.339
rtibia 66.8041
rfoot -7.63286 -9.17368
rtoes 5.72542
lfemur -2.27087 -2.42629 -26.6163
ltibia 26.0789
lfoot -15.7683 -3.15752
ltoes 4.99827
